<?xml version="1.0" encoding="utf-8"?>
<!-- Generator: Adobe Illustrator 27.1.0, SVG Export Plug-In . SVG Version: 6.00 Build 0)  -->
<svg version="1.1" id="Calque_1" xmlns="http://www.w3.org/2000/svg" xmlns:xlink="http://www.w3.org/1999/xlink" x="0px" y="0px"
	 viewBox="0 0 232.8 232.8" style="enable-background:new 0 0 232.8 232.8;" xml:space="preserve">
<style type="text/css">
	.st0{fill:#DA291B;}
	.st1{fill-rule:evenodd;clip-rule:evenodd;fill:#E9473A;}
	.st2{fill-rule:evenodd;clip-rule:evenodd;fill:#FFFFFF;}
</style>
<path class="st0" d="M116.4-0.3c32.1,0,61.2,13,82.2,34.1h0.1c21.1,21.1,34.1,50.2,34.1,82.3c0,32.1-13,61.2-34.1,82.3l-0.1,0.1
	c-21.1,21.1-50.1,34.1-82.2,34.1c-32.1,0-61.2-13-82.3-34.1l-0.1-0.1C13,177.3-0.1,148.2-0.1,116.1C-0.1,84,13,54.9,34,33.8
	S84.2-0.3,116.4-0.3z"/>
<path class="st1" d="M116.4,14.1c56.4,0,102.1,45.7,102.1,102.1s-45.7,102.1-102.1,102.1c-56.4,0-102.1-45.7-102.1-102.1
	S60,14.1,116.4,14.1L116.4,14.1z"/>
<path class="st2" d="M66.8,133.8h17.5c2,0,3.6-1.6,3.6-3.6v-48c0-2-1.6-3.6-3.6-3.6H66.8c-2,0-3.6,1.6-3.6,3.6v48
	C63.2,132.2,64.8,133.8,66.8,133.8z M115.1,169.9c1.9,9.6,17.7,0.8,18.8-14.8c0.3-4.8-0.2-10.3-1.4-16.5h22.6
	c9.4-0.4,17.6-7.1,11.8-18.1c1.3-4.8,1.5-10.4-2.1-12.7c0.4-7.6-1.7-12.3-5.6-16c-0.3-3.8-1.1-7.2-2.9-9.8c-3-4.3-5.5-3.3-10.3-3.3
	h-38.1c-6,0-9.3,1.7-13.3,6.6v42.5c11.4,3.1,17.4,18.6,20.5,28.8V169.9L115.1,169.9z"/>
</svg>
