<?xml version="1.0" encoding="utf-8"?>
<!-- Generator: Adobe Illustrator 27.1.1, SVG Export Plug-In . SVG Version: 6.00 Build 0)  -->
<svg version="1.1" id="Calque_1" xmlns="http://www.w3.org/2000/svg" xmlns:xlink="http://www.w3.org/1999/xlink" x="0px" y="0px"
	 viewBox="0 0 30 30" style="enable-background:new 0 0 30 30;" xml:space="preserve">
<style type="text/css">
	.st0{fill:#FFFFFF;}
</style>
<path class="st0" d="M13,3c-0.6,0-1,0.4-1,1c0,0,0,0,0,0H6C5.4,4,5,4.4,5,5s0.4,1,1,1c0,0,0,0,0,0h18c0.6,0,1-0.4,1-1s-0.4-1-1-1
	c0,0,0,0,0,0h-6c0-0.6-0.4-1-1-1c0,0,0,0,0,0H13z M6,8v16c0,1.1,0.9,2,2,2h14c1.1,0,2-0.9,2-2V8H6z"/>
</svg>
